<svg xmlns:v="http://schemas.microsoft.com/visio/2003/SVGExtensions/" xmlns="http://www.w3.org/2000/svg" xmlns:oryx="http://oryx-editor.org" xmlns:xlink="http://www.w3.org/1999/xlink" baseProfile="full" generated="java" height="130" id="svg-canvas" oryx:signavioversion="13.10.2" version="1.1" width="509"><defs/><g font-family="'Open Sans', 'Kanit', 'Ezra SIL', 'DejaVu Sans', HanaMinA, HanaMinB, sans-serif" font-size="12" font-size-adjust="none" font-style="normal" font-variant="normal" font-weight="normal" stroke="black"><g class="stencils" transform="translate(-135, -85)"><g class="me"/><g class="children"><g id="svg-sid-4898F76A-C40A-4C74-80E5-9A1864679DED"><g class="stencils" transform="translate(160, 110)"><g class="me"><g xmlns:ns0="http://oryx-editor.org" ns0:minimumSize="90 72" pointer-events="fill" title="Entscheidung"><defs><radialGradient cx="10%" cy="10%" fx="10%" fy="10%" id="sid-da17fe16-51c4-4f37-9e80-f969ece5702abackground" r="100%"><stop offset="0" stop-color="#ffffff" stop-opacity="1"/><stop id="sid-da17fe16-51c4-4f37-9e80-f969ece5702afill_el" offset="100%" stop-color="#ffffcc" stop-opacity="1"/></radialGradient></defs><rect fill="url(#sid-da17fe16-51c4-4f37-9e80-f969ece5702abackground) #ffffcc" height="80" id="sid-da17fe16-51c4-4f37-9e80-f969ece5702abg_frame" ns0:resize="vertical horizontal" stroke="#000000" stroke-width="1" width="100" x="0" y="0"/><text xmlns:ns1="http://oryx-editor.org" xmlns:ns2="http://oryx-editor.org" xmlns:ns3="http://oryx-editor.org" font-size="12" id="sid-da17fe16-51c4-4f37-9e80-f969ece5702atext_name" letter-spacing="-0.01px" ns0:align="center middle" ns1:fittoelem="sid-da17fe16-51c4-4f37-9e80-f969ece5702atext_frame" ns2:fontSize="12" ns3:textWidth="100" stroke="black" stroke-width="0pt" text-anchor="middle" transform="rotate(0)" x="50" y="40"><tspan dy="4" x="50" y="40">Decision</tspan></text><a id="sid-da17fe16-51c4-4f37-9e80-f969ece5702adecisionDialogShortcut" target="_blank"><g display="inherit" id="sid-da17fe16-51c4-4f37-9e80-f969ece5702adecisionTableSymbol" transform="scale(0.7,0.7) translate(8,8)"><rect height="4" id="sid-da17fe16-51c4-4f37-9e80-f969ece5702atop" ns0:anchors="top left" stroke="black" style="opacity:1;fill:#B3B1B3;fill-opacity:1;" width="22" x="0" y="0"/><rect height="12" id="sid-da17fe16-51c4-4f37-9e80-f969ece5702arect" ns0:anchors="top left" stroke="black" style="opacity:1;fill:none;" width="22" x="0" y="4"/><path d="M0 10 L22 10 " id="sid-da17fe16-51c4-4f37-9e80-f969ece5702arow" ns0:anchors="top left" stroke="black" style="opacity:1;fill:none;"/><path d="M7 4 L7 16 " id="sid-da17fe16-51c4-4f37-9e80-f969ece5702acol" ns0:anchors="top left" stroke="black" style="opacity:1; fill:none;"/></g></a><title>Entscheidung</title></g></g><g class="children"/><g class="edge"/><g class="topchildren"/><g class="overlays stripable-element-force"/></g><g class="controls"><g class="dockers"/><g class="magnets"/></g></g><g id="svg-sid-09CB50EF-62F7-40FC-A68A-CC2C3B619F3E"><g class="stencils" transform="translate(340, 121)"><g class="me"><g xmlns:ns0="http://oryx-editor.org" ns0:minimumSize="90 54" pointer-events="fill" title="Eingangsdaten"><defs><radialGradient cx="10%" cy="10%" fx="10%" fy="10%" id="sid-2a0d389a-118d-4fbd-885a-ee2da5b80f73background" r="100%"><stop offset="0" stop-color="#ffffff" stop-opacity="1"/><stop id="sid-2a0d389a-118d-4fbd-885a-ee2da5b80f73fill_el" offset="100%" stop-color="#ffffcc" stop-opacity="1"/></radialGradient></defs><rect fill="url(#sid-2a0d389a-118d-4fbd-885a-ee2da5b80f73background) #ffffb5" height="60" id="sid-2a0d389a-118d-4fbd-885a-ee2da5b80f73bg_frame" ns0:resize="vertical horizontal" rx="30" ry="30" stroke="#000000" stroke-width="1" width="100" x="0" y="0"/><text xmlns:ns1="http://oryx-editor.org" xmlns:ns2="http://oryx-editor.org" xmlns:ns3="http://oryx-editor.org" font-size="12" id="sid-2a0d389a-118d-4fbd-885a-ee2da5b80f73text_name" letter-spacing="-0.01px" ns0:align="center middle" ns1:fittoelem="sid-2a0d389a-118d-4fbd-885a-ee2da5b80f73text_frame" ns2:fontSize="12" ns3:textWidth="72" stroke="black" stroke-width="0pt" text-anchor="middle" transform="rotate(0)" x="50" y="30"><tspan dy="4" x="50" y="30">Input-Data</tspan></text><title>Eingangsdaten</title></g></g><g class="children"/><g class="edge"/><g class="topchildren"/><g class="overlays stripable-element-force"/></g><g class="controls"><g class="dockers"/><g class="magnets"/></g></g><g id="svg-sid-28615502-D4E5-46B9-AF73-016C0E8C8D87"><g class="stencils" transform="translate(519, 111)"><g class="me"><g xmlns:ns0="http://oryx-editor.org" ns0:minimumSize="90 72" pointer-events="fill" title="Wissensquelle"><defs><radialGradient cx="10%" cy="10%" fx="10%" fy="10%" id="sid-21fab7a5-7656-44c0-9115-c8ace5f87d2abackground" r="100%"><stop offset="0" stop-color="#ffffff" stop-opacity="1"/><stop id="sid-21fab7a5-7656-44c0-9115-c8ace5f87d2afill_el" offset="100%" stop-color="#ffffcc" stop-opacity="1"/></radialGradient></defs><polygon fill="url(#sid-21fab7a5-7656-44c0-9115-c8ace5f87d2abackground) #FEE0E2" id="sid-21fab7a5-7656-44c0-9115-c8ace5f87d2abg_frame" ns0:resize="vertical horizontal" points="0,60 0,0 100,0 100,60 99.852,60.596 99.182,59.855 98.484,59.139 97.764,58.445 97.025,57.771 96.269,57.117 95.496,56.482 94.706,55.869 93.902,55.275 93.082,54.703 92.247,54.152 91.399,53.622 90.537,53.116 89.662,52.632 88.773,52.173 87.873,51.738 86.961,51.329 86.037,50.945 85.103,50.589 84.159,50.26 83.205,49.959 82.242,49.687 81.272,49.445 80.295,49.232 79.312,49.05 78.324,48.897 77.331,48.776 76.335,48.686 75.337,48.627 74.338,48.599 73.338,48.602 72.338,48.636 71.34,48.7 70.345,48.794 69.353,48.917 68.364,49.069 67.381,49.249 66.402,49.456 65.43,49.69 64.465,49.951 63.506,50.236 62.556,50.546 61.613,50.879 60.678,51.234 59.752,51.611 58.835,52.009 57.926,52.428 57.027,52.865 56.137,53.321 55.256,53.795 54.385,54.286 53.523,54.792 52.67,55.315 51.827,55.852 50.993,56.403 50.168,56.968 49.373,57.575 48.581,58.185 47.782,58.786 46.976,59.379 46.163,59.961 45.344,60.534 44.517,61.097 43.683,61.649 42.842,62.19 41.994,62.719 41.139,63.237 40.275,63.741 39.404,64.232 38.525,64.709 37.638,65.171 36.743,65.618 35.841,66.048 34.93,66.462 34.012,66.857 33.086,67.234 32.152,67.591 31.21,67.928 30.261,68.242 29.304,68.534 28.341,68.802 27.371,69.045 26.395,69.262 25.413,69.451 24.426,69.612 23.435,69.743 22.44,69.844 21.442,69.912 20.443,69.947 19.443,69.948 18.443,69.914 17.446,69.844 16.452,69.737 15.462,69.592 14.479,69.409 13.504,69.19 12.538,68.93 11.583,68.634 10.641,68.298 9.714,67.925 8.802,67.515 7.907,67.068 7.032,66.584 6.177,66.065 5.345,65.512 4.536,64.924 3.753,64.302 2.998,63.647 2.273,62.958 1.583,62.235 0.934,61.473 0.345,60.666 0,60" stroke="#000000" stroke-linecap="round" stroke-linejoin="round" stroke-miterlimit="10" stroke-width="1"/><text xmlns:ns1="http://oryx-editor.org" xmlns:ns2="http://oryx-editor.org" xmlns:ns3="http://oryx-editor.org" font-size="12" id="sid-21fab7a5-7656-44c0-9115-c8ace5f87d2atext_name" letter-spacing="-0.01px" ns0:align="center middle" ns1:fittoelem="sid-21fab7a5-7656-44c0-9115-c8ace5f87d2atext_frame" ns2:fontSize="12" ns3:textWidth="98" stroke="black" stroke-width="0pt" text-anchor="middle" transform="rotate(0)" x="50" y="25"><tspan dy="-2" x="50" y="25">Knowledge-<v:newlineChar/></tspan><tspan dy="10" x="50" y="25">Source</tspan></text><text xmlns:ns1="http://oryx-editor.org" xmlns:ns2="http://oryx-editor.org" xmlns:ns3="http://oryx-editor.org" xmlns:ns4="http://oryx-editor.org" font-size="12" id="sid-21fab7a5-7656-44c0-9115-c8ace5f87d2atext_name_fly" letter-spacing="-0.01px" ns0:align="left top" ns1:anchors="top left" ns2:fittoelem="sid-21fab7a5-7656-44c0-9115-c8ace5f87d2atext_frame" ns3:fontSize="12" ns4:textWidth="98" stroke="black" stroke-width="0pt" text-anchor="start" transform="rotate(0)" x="8" y="10"/><title>Wissensquelle</title></g></g><g class="children"/><g class="edge"/><g class="topchildren"/><g class="overlays stripable-element-force"/></g><g class="controls"><g class="dockers"/><g class="magnets"/></g></g></g><g class="edge"/><g class="topchildren"/><g class="overlays stripable-element-force"/></g></g></svg>