<svg xmlns:v="http://schemas.microsoft.com/visio/2003/SVGExtensions/" xmlns="http://www.w3.org/2000/svg" xmlns:oryx="http://oryx-editor.org" xmlns:xlink="http://www.w3.org/1999/xlink" baseProfile="full" generated="java" height="362" id="svg-canvas" oryx:signavioversion="13.10.1" version="1.1" width="763"><defs><marker id="sid-5b85e7ca-b8e5-47a0-bc78-27c68b21882astart" markerHeight="10" markerUnits="userSpaceOnUse" markerWidth="15" orient="auto" refX="0" refY="5"><path d="M 15 0 L 0 5 L 15 10 L 15 0" fill="black" id="sid-5b85e7ca-b8e5-47a0-bc78-27c68b21882aarrowhead" stroke="#000000"/></marker><marker id="sid-5b85e7ca-b8e5-47a0-bc78-27c68b21882astart_shadow" markerHeight="10" markerUnits="userSpaceOnUse" markerWidth="15" orient="auto" refX="0" refY="5" stroke="white" stroke-linecap="butt" stroke-opacity="0.7" stroke-width="5"><path d="M 15 0 L 0 5 L 15 10 L 15 0" fill="black" id="sid-5b85e7ca-b8e5-47a0-bc78-27c68b21882aarrowhead_shadow" stroke="white" stroke-linecap="butt" stroke-opacity="0.7" stroke-width="5"/></marker><marker id="sid-9bb653cd-d4c7-4fe6-8cd7-c2371268fb1bstart" markerHeight="10" markerUnits="userSpaceOnUse" markerWidth="15" orient="auto" refX="0" refY="5"><path d="M 15 0 L 0 5 L 15 10 L 15 0" fill="black" id="sid-9bb653cd-d4c7-4fe6-8cd7-c2371268fb1barrowhead" stroke="#000000"/></marker><marker id="sid-9bb653cd-d4c7-4fe6-8cd7-c2371268fb1bstart_shadow" markerHeight="10" markerUnits="userSpaceOnUse" markerWidth="15" orient="auto" refX="0" refY="5" stroke="white" stroke-linecap="butt" stroke-opacity="0.7" stroke-width="5"><path d="M 15 0 L 0 5 L 15 10 L 15 0" fill="black" id="sid-9bb653cd-d4c7-4fe6-8cd7-c2371268fb1barrowhead_shadow" stroke="white" stroke-linecap="butt" stroke-opacity="0.7" stroke-width="5"/></marker><marker id="sid-92098b3f-46fd-4188-905c-bd7a3304e7c3start" markerHeight="10" markerUnits="userSpaceOnUse" markerWidth="15" orient="auto" refX="0" refY="5"><path d="M 15 0 L 0 5 L 15 10 L 15 0" fill="black" id="sid-92098b3f-46fd-4188-905c-bd7a3304e7c3arrowhead" stroke="#000000"/></marker><marker id="sid-92098b3f-46fd-4188-905c-bd7a3304e7c3start_shadow" markerHeight="10" markerUnits="userSpaceOnUse" markerWidth="15" orient="auto" refX="0" refY="5" stroke="white" stroke-linecap="butt" stroke-opacity="0.7" stroke-width="5"><path d="M 15 0 L 0 5 L 15 10 L 15 0" fill="black" id="sid-92098b3f-46fd-4188-905c-bd7a3304e7c3arrowhead_shadow" stroke="white" stroke-linecap="butt" stroke-opacity="0.7" stroke-width="5"/></marker><marker id="sid-11d41a78-e0b1-407e-8d04-6ea676d1d4dcstart" markerHeight="10" markerUnits="userSpaceOnUse" markerWidth="15" orient="auto" refX="0" refY="5"><path d="M 15 0 L 0 5 L 15 10 L 15 0" fill="black" id="sid-11d41a78-e0b1-407e-8d04-6ea676d1d4dcarrowhead" stroke="#000000"/></marker><marker id="sid-11d41a78-e0b1-407e-8d04-6ea676d1d4dcstart_shadow" markerHeight="10" markerUnits="userSpaceOnUse" markerWidth="15" orient="auto" refX="0" refY="5" stroke="white" stroke-linecap="butt" stroke-opacity="0.7" stroke-width="5"><path d="M 15 0 L 0 5 L 15 10 L 15 0" fill="black" id="sid-11d41a78-e0b1-407e-8d04-6ea676d1d4dcarrowhead_shadow" stroke="white" stroke-linecap="butt" stroke-opacity="0.7" stroke-width="5"/></marker><marker id="sid-8f8694ec-8fb0-4d7d-9da9-1eddb695faa2start" markerHeight="10" markerUnits="userSpaceOnUse" markerWidth="15" orient="auto" refX="0" refY="5"><path d="M 15 0 L 0 5 L 15 10 L 15 0" fill="black" id="sid-8f8694ec-8fb0-4d7d-9da9-1eddb695faa2arrowhead" stroke="#000000"/></marker><marker id="sid-8f8694ec-8fb0-4d7d-9da9-1eddb695faa2start_shadow" markerHeight="10" markerUnits="userSpaceOnUse" markerWidth="15" orient="auto" refX="0" refY="5" stroke="white" stroke-linecap="butt" stroke-opacity="0.7" stroke-width="5"><path d="M 15 0 L 0 5 L 15 10 L 15 0" fill="black" id="sid-8f8694ec-8fb0-4d7d-9da9-1eddb695faa2arrowhead_shadow" stroke="white" stroke-linecap="butt" stroke-opacity="0.7" stroke-width="5"/></marker><marker id="sid-b304d907-1389-495b-932f-b0765658e29astart" markerHeight="10" markerUnits="userSpaceOnUse" markerWidth="15" orient="auto" refX="0" refY="5"><path d="M 15 0 L 0 5 L 15 10 L 15 0" fill="black" id="sid-b304d907-1389-495b-932f-b0765658e29aarrowhead" stroke="#000000"/></marker><marker id="sid-b304d907-1389-495b-932f-b0765658e29astart_shadow" markerHeight="10" markerUnits="userSpaceOnUse" markerWidth="15" orient="auto" refX="0" refY="5" stroke="white" stroke-linecap="butt" stroke-opacity="0.7" stroke-width="5"><path d="M 15 0 L 0 5 L 15 10 L 15 0" fill="black" id="sid-b304d907-1389-495b-932f-b0765658e29aarrowhead_shadow" stroke="white" stroke-linecap="butt" stroke-opacity="0.7" stroke-width="5"/></marker><marker id="sid-b2c3d262-9fce-4c53-bf1c-618c02da68b1start" markerHeight="10" markerUnits="userSpaceOnUse" markerWidth="10" orient="auto" refX="0" refY="5"><circle cx="5" cy="5" fill="black" id="sid-b2c3d262-9fce-4c53-bf1c-618c02da68b1arrowhead" r="5" stroke="#000000"/></marker><marker id="sid-6ee5fd14-f99e-423c-97e3-64b1bc4e2c65start" markerHeight="10" markerUnits="userSpaceOnUse" markerWidth="10" orient="auto" refX="0" refY="5"><circle cx="5" cy="5" fill="black" id="sid-6ee5fd14-f99e-423c-97e3-64b1bc4e2c65arrowhead" r="5" stroke="#000000"/></marker><marker id="sid-68376137-8d90-4e44-94c2-498e6c289163start" markerHeight="10" markerUnits="userSpaceOnUse" markerWidth="10" orient="auto" refX="0" refY="5"><circle cx="5" cy="5" fill="black" id="sid-68376137-8d90-4e44-94c2-498e6c289163arrowhead" r="5" stroke="#000000"/></marker></defs><g font-family="'Open Sans', 'Kanit', 'Ezra SIL', 'DejaVu Sans', HanaMinA, HanaMinB, sans-serif" font-size="12" font-size-adjust="none" font-style="normal" font-variant="normal" font-weight="normal" stroke="black"><g class="stencils" transform="translate(-19, -75)"><g class="me"/><g class="children"><g id="svg-sid-40068D3D-766E-4ED2-8108-499887C3A749"><g class="stencils" transform="translate(350, 100)"><g class="me"><g xmlns:ns0="http://oryx-editor.org" ns0:minimumSize="90 72" pointer-events="fill" title="Entscheidung"><defs><radialGradient cx="10%" cy="10%" fx="10%" fy="10%" id="sid-2e7cd67a-5930-479f-99cc-9023779cecebbackground" r="100%"><stop offset="0" stop-color="#ffffff" stop-opacity="1"/><stop id="sid-2e7cd67a-5930-479f-99cc-9023779cecebfill_el" offset="100%" stop-color="#ffffcc" stop-opacity="1"/></radialGradient></defs><rect fill="url(#sid-2e7cd67a-5930-479f-99cc-9023779cecebbackground) #ffffcc" height="80" id="sid-2e7cd67a-5930-479f-99cc-9023779cecebbg_frame" ns0:resize="vertical horizontal" stroke="#000000" stroke-width="1" width="100" x="0" y="0"/><text xmlns:ns1="http://oryx-editor.org" xmlns:ns2="http://oryx-editor.org" xmlns:ns3="http://oryx-editor.org" font-size="12" id="sid-2e7cd67a-5930-479f-99cc-9023779cecebtext_name" letter-spacing="-0.01px" ns0:align="center middle" ns1:fittoelem="sid-2e7cd67a-5930-479f-99cc-9023779cecebtext_frame" ns2:fontSize="12" ns3:textWidth="100" stroke="black" stroke-width="0pt" text-anchor="middle" transform="rotate(0)" x="50" y="40"/><a id="sid-2e7cd67a-5930-479f-99cc-9023779cecebdecisionDialogShortcut" target="_blank"><g display="inherit" id="sid-2e7cd67a-5930-479f-99cc-9023779cecebdecisionTableSymbol" transform="scale(0.7,0.7) translate(8,8)"><rect height="4" id="sid-2e7cd67a-5930-479f-99cc-9023779cecebtop" ns0:anchors="left top" stroke="black" style="opacity:1;fill:#B3B1B3;fill-opacity:1;" width="22" x="0" y="0"/><rect height="12" id="sid-2e7cd67a-5930-479f-99cc-9023779cecebrect" ns0:anchors="left top" stroke="black" style="opacity:1;fill:none;" width="22" x="0" y="4"/><path d="M0 10 L22 10 " id="sid-2e7cd67a-5930-479f-99cc-9023779cecebrow" ns0:anchors="left top" stroke="black" style="opacity:1;fill:none;"/><path d="M7 4 L7 16 " id="sid-2e7cd67a-5930-479f-99cc-9023779cecebcol" ns0:anchors="left top" stroke="black" style="opacity:1; fill:none;"/></g></a><title>Entscheidung</title></g></g><g class="children"/><g class="edge"/><g class="topchildren"/><g class="overlays stripable-element-force"/></g><g class="controls"><g class="dockers"/><g class="magnets"/></g></g><g id="svg-sid-F686FB08-E634-4797-8315-B902525C8870"><g class="stencils" transform="translate(230, 226)"><g class="me"><g xmlns:ns0="http://oryx-editor.org" ns0:minimumSize="90 72" pointer-events="fill" title="Entscheidung"><defs><radialGradient cx="10%" cy="10%" fx="10%" fy="10%" id="sid-a77018c0-d2b2-4701-bba9-9f43e5aec4a7background" r="100%"><stop offset="0" stop-color="#ffffff" stop-opacity="1"/><stop id="sid-a77018c0-d2b2-4701-bba9-9f43e5aec4a7fill_el" offset="100%" stop-color="#ffffcc" stop-opacity="1"/></radialGradient></defs><rect fill="url(#sid-a77018c0-d2b2-4701-bba9-9f43e5aec4a7background) #ffffcc" height="80" id="sid-a77018c0-d2b2-4701-bba9-9f43e5aec4a7bg_frame" ns0:resize="vertical horizontal" stroke="#000000" stroke-width="1" width="100" x="0" y="0"/><text xmlns:ns1="http://oryx-editor.org" xmlns:ns2="http://oryx-editor.org" xmlns:ns3="http://oryx-editor.org" font-size="12" id="sid-a77018c0-d2b2-4701-bba9-9f43e5aec4a7text_name" letter-spacing="-0.01px" ns0:align="center middle" ns1:fittoelem="sid-a77018c0-d2b2-4701-bba9-9f43e5aec4a7text_frame" ns2:fontSize="12" ns3:textWidth="100" stroke="black" stroke-width="0pt" text-anchor="middle" transform="rotate(0)" x="50" y="40"/><a id="sid-a77018c0-d2b2-4701-bba9-9f43e5aec4a7decisionDialogShortcut" target="_blank"><g display="inherit" id="sid-a77018c0-d2b2-4701-bba9-9f43e5aec4a7decisionTableSymbol" transform="scale(0.7,0.7) translate(8,8)"><rect height="4" id="sid-a77018c0-d2b2-4701-bba9-9f43e5aec4a7top" ns0:anchors="left top" stroke="black" style="opacity:1;fill:#B3B1B3;fill-opacity:1;" width="22" x="0" y="0"/><rect height="12" id="sid-a77018c0-d2b2-4701-bba9-9f43e5aec4a7rect" ns0:anchors="left top" stroke="black" style="opacity:1;fill:none;" width="22" x="0" y="4"/><path d="M0 10 L22 10 " id="sid-a77018c0-d2b2-4701-bba9-9f43e5aec4a7row" ns0:anchors="left top" stroke="black" style="opacity:1;fill:none;"/><path d="M7 4 L7 16 " id="sid-a77018c0-d2b2-4701-bba9-9f43e5aec4a7col" ns0:anchors="left top" stroke="black" style="opacity:1; fill:none;"/></g></a><title>Entscheidung</title></g></g><g class="children"/><g class="edge"/><g class="topchildren"/><g class="overlays stripable-element-force"/></g><g class="controls"><g class="dockers"/><g class="magnets"/></g></g><g id="svg-sid-E06A93D0-DB00-49CE-BD6F-F6AF5A5D7894"><g class="stencils" transform="translate(111, 352)"><g class="me"><g xmlns:ns0="http://oryx-editor.org" ns0:minimumSize="90 54" pointer-events="fill" title="Eingangsdaten"><defs><radialGradient cx="10%" cy="10%" fx="10%" fy="10%" id="sid-7acc7679-5d48-44fe-b706-8494d0e47378background" r="100%"><stop offset="0" stop-color="#ffffff" stop-opacity="1"/><stop id="sid-7acc7679-5d48-44fe-b706-8494d0e47378fill_el" offset="100%" stop-color="#ffffcc" stop-opacity="1"/></radialGradient></defs><rect fill="url(#sid-7acc7679-5d48-44fe-b706-8494d0e47378background) #ffffb5" height="60" id="sid-7acc7679-5d48-44fe-b706-8494d0e47378bg_frame" ns0:resize="vertical horizontal" rx="30" ry="30" stroke="#000000" stroke-width="1" width="100" x="0" y="0"/><text xmlns:ns1="http://oryx-editor.org" xmlns:ns2="http://oryx-editor.org" xmlns:ns3="http://oryx-editor.org" font-size="12" id="sid-7acc7679-5d48-44fe-b706-8494d0e47378text_name" letter-spacing="-0.01px" ns0:align="center middle" ns1:fittoelem="sid-7acc7679-5d48-44fe-b706-8494d0e47378text_frame" ns2:fontSize="12" ns3:textWidth="72" stroke="black" stroke-width="0pt" text-anchor="middle" transform="rotate(0)" x="50" y="30"/><title>Eingangsdaten</title></g></g><g class="children"/><g class="edge"/><g class="topchildren"/><g class="overlays stripable-element-force"/></g><g class="controls"><g class="dockers"/><g class="magnets"/></g></g><g id="svg-sid-9686FA44-4194-430B-94BA-A44DA59DEE96"><g class="stencils" transform="translate(257, 352)"><g class="me"><g xmlns:ns0="http://oryx-editor.org" ns0:minimumSize="90 54" pointer-events="fill" title="Eingangsdaten"><defs><radialGradient cx="10%" cy="10%" fx="10%" fy="10%" id="sid-aa499519-fae0-48d8-8e81-3180214880ffbackground" r="100%"><stop offset="0" stop-color="#ffffff" stop-opacity="1"/><stop id="sid-aa499519-fae0-48d8-8e81-3180214880fffill_el" offset="100%" stop-color="#ffffcc" stop-opacity="1"/></radialGradient></defs><rect fill="url(#sid-aa499519-fae0-48d8-8e81-3180214880ffbackground) #ffffb5" height="60" id="sid-aa499519-fae0-48d8-8e81-3180214880ffbg_frame" ns0:resize="vertical horizontal" rx="30" ry="30" stroke="#000000" stroke-width="1" width="100" x="0" y="0"/><text xmlns:ns1="http://oryx-editor.org" xmlns:ns2="http://oryx-editor.org" xmlns:ns3="http://oryx-editor.org" font-size="12" id="sid-aa499519-fae0-48d8-8e81-3180214880fftext_name" letter-spacing="-0.01px" ns0:align="center middle" ns1:fittoelem="sid-aa499519-fae0-48d8-8e81-3180214880fftext_frame" ns2:fontSize="12" ns3:textWidth="72" stroke="black" stroke-width="0pt" text-anchor="middle" transform="rotate(0)" x="50" y="30"/><title>Eingangsdaten</title></g></g><g class="children"/><g class="edge"/><g class="topchildren"/><g class="overlays stripable-element-force"/></g><g class="controls"><g class="dockers"/><g class="magnets"/></g></g><g id="svg-sid-EDE9059F-167B-45B6-A973-3B86A2382234"><g class="stencils" transform="translate(470, 226)"><g class="me"><g xmlns:ns0="http://oryx-editor.org" ns0:minimumSize="90 72" pointer-events="fill" title="Entscheidung"><defs><radialGradient cx="10%" cy="10%" fx="10%" fy="10%" id="sid-a6057316-cea4-4e44-9e9c-dc04da3994f2background" r="100%"><stop offset="0" stop-color="#ffffff" stop-opacity="1"/><stop id="sid-a6057316-cea4-4e44-9e9c-dc04da3994f2fill_el" offset="100%" stop-color="#ffffcc" stop-opacity="1"/></radialGradient></defs><rect fill="url(#sid-a6057316-cea4-4e44-9e9c-dc04da3994f2background) #ffffcc" height="80" id="sid-a6057316-cea4-4e44-9e9c-dc04da3994f2bg_frame" ns0:resize="vertical horizontal" stroke="#000000" stroke-width="1" width="100" x="0" y="0"/><text xmlns:ns1="http://oryx-editor.org" xmlns:ns2="http://oryx-editor.org" xmlns:ns3="http://oryx-editor.org" font-size="12" id="sid-a6057316-cea4-4e44-9e9c-dc04da3994f2text_name" letter-spacing="-0.01px" ns0:align="center middle" ns1:fittoelem="sid-a6057316-cea4-4e44-9e9c-dc04da3994f2text_frame" ns2:fontSize="12" ns3:textWidth="100" stroke="black" stroke-width="0pt" text-anchor="middle" transform="rotate(0)" x="50" y="40"/><a id="sid-a6057316-cea4-4e44-9e9c-dc04da3994f2decisionDialogShortcut" target="_blank"><g display="inherit" id="sid-a6057316-cea4-4e44-9e9c-dc04da3994f2decisionTableSymbol" transform="scale(0.7,0.7) translate(8,8)"><rect height="4" id="sid-a6057316-cea4-4e44-9e9c-dc04da3994f2top" ns0:anchors="left top" stroke="black" style="opacity:1;fill:#B3B1B3;fill-opacity:1;" width="22" x="0" y="0"/><rect height="12" id="sid-a6057316-cea4-4e44-9e9c-dc04da3994f2rect" ns0:anchors="left top" stroke="black" style="opacity:1;fill:none;" width="22" x="0" y="4"/><path d="M0 10 L22 10 " id="sid-a6057316-cea4-4e44-9e9c-dc04da3994f2row" ns0:anchors="left top" stroke="black" style="opacity:1;fill:none;"/><path d="M7 4 L7 16 " id="sid-a6057316-cea4-4e44-9e9c-dc04da3994f2col" ns0:anchors="left top" stroke="black" style="opacity:1; fill:none;"/></g></a><title>Entscheidung</title></g></g><g class="children"/><g class="edge"/><g class="topchildren"/><g class="overlays stripable-element-force"/></g><g class="controls"><g class="dockers"/><g class="magnets"/></g></g><g id="svg-sid-FC3B8459-2F6C-42E1-B9A8-1C29994A2C57"><g class="stencils" transform="translate(390, 352)"><g class="me"><g xmlns:ns0="http://oryx-editor.org" ns0:minimumSize="90 54" pointer-events="fill" title="Eingangsdaten"><defs><radialGradient cx="10%" cy="10%" fx="10%" fy="10%" id="sid-ab1f329d-04ac-4d5b-887a-d40cdc94be73background" r="100%"><stop offset="0" stop-color="#ffffff" stop-opacity="1"/><stop id="sid-ab1f329d-04ac-4d5b-887a-d40cdc94be73fill_el" offset="100%" stop-color="#ffffcc" stop-opacity="1"/></radialGradient></defs><rect fill="url(#sid-ab1f329d-04ac-4d5b-887a-d40cdc94be73background) #ffffb5" height="60" id="sid-ab1f329d-04ac-4d5b-887a-d40cdc94be73bg_frame" ns0:resize="vertical horizontal" rx="30" ry="30" stroke="#000000" stroke-width="1" width="100" x="0" y="0"/><text xmlns:ns1="http://oryx-editor.org" xmlns:ns2="http://oryx-editor.org" xmlns:ns3="http://oryx-editor.org" font-size="12" id="sid-ab1f329d-04ac-4d5b-887a-d40cdc94be73text_name" letter-spacing="-0.01px" ns0:align="center middle" ns1:fittoelem="sid-ab1f329d-04ac-4d5b-887a-d40cdc94be73text_frame" ns2:fontSize="12" ns3:textWidth="72" stroke="black" stroke-width="0pt" text-anchor="middle" transform="rotate(0)" x="50" y="30"/><title>Eingangsdaten</title></g></g><g class="children"/><g class="edge"/><g class="topchildren"/><g class="overlays stripable-element-force"/></g><g class="controls"><g class="dockers"/><g class="magnets"/></g></g><g id="svg-sid-29123F9A-1A9C-4719-8DE2-327297A246F4"><g class="stencils" transform="translate(536, 352)"><g class="me"><g xmlns:ns0="http://oryx-editor.org" ns0:minimumSize="90 54" pointer-events="fill" title="Eingangsdaten"><defs><radialGradient cx="10%" cy="10%" fx="10%" fy="10%" id="sid-9cdc944b-93bc-48c7-ae2a-970f7dc01a8cbackground" r="100%"><stop offset="0" stop-color="#ffffff" stop-opacity="1"/><stop id="sid-9cdc944b-93bc-48c7-ae2a-970f7dc01a8cfill_el" offset="100%" stop-color="#ffffcc" stop-opacity="1"/></radialGradient></defs><rect fill="url(#sid-9cdc944b-93bc-48c7-ae2a-970f7dc01a8cbackground) #ffffb5" height="60" id="sid-9cdc944b-93bc-48c7-ae2a-970f7dc01a8cbg_frame" ns0:resize="vertical horizontal" rx="30" ry="30" stroke="#000000" stroke-width="1" width="100" x="0" y="0"/><text xmlns:ns1="http://oryx-editor.org" xmlns:ns2="http://oryx-editor.org" xmlns:ns3="http://oryx-editor.org" font-size="12" id="sid-9cdc944b-93bc-48c7-ae2a-970f7dc01a8ctext_name" letter-spacing="-0.01px" ns0:align="center middle" ns1:fittoelem="sid-9cdc944b-93bc-48c7-ae2a-970f7dc01a8ctext_frame" ns2:fontSize="12" ns3:textWidth="72" stroke="black" stroke-width="0pt" text-anchor="middle" transform="rotate(0)" x="50" y="30"/><title>Eingangsdaten</title></g></g><g class="children"/><g class="edge"/><g class="topchildren"/><g class="overlays stripable-element-force"/></g><g class="controls"><g class="dockers"/><g class="magnets"/></g></g><g id="svg-sid-315D2E0E-DCF3-4085-84ED-7510EC518D3A"><g class="stencils" transform="translate(616, 101)"><g class="me"><g xmlns:ns0="http://oryx-editor.org" ns0:minimumSize="90 72" pointer-events="fill" title="Wissensquelle"><defs><radialGradient cx="10%" cy="10%" fx="10%" fy="10%" id="sid-3f89aa1f-5175-4cce-b941-64b69cc1e9b6background" r="100%"><stop offset="0" stop-color="#ffffff" stop-opacity="1"/><stop id="sid-3f89aa1f-5175-4cce-b941-64b69cc1e9b6fill_el" offset="100%" stop-color="#a9c1b5" stop-opacity="1"/></radialGradient></defs><polygon fill="url(#sid-3f89aa1f-5175-4cce-b941-64b69cc1e9b6background) #FEE0E2" id="sid-3f89aa1f-5175-4cce-b941-64b69cc1e9b6bg_frame" ns0:resize="vertical horizontal" points="0,60 0,0 100,0 100,60 99.852,60.596 99.182,59.855 98.484,59.139 97.764,58.445 97.025,57.771 96.269,57.117 95.496,56.482 94.706,55.869 93.902,55.275 93.082,54.703 92.247,54.152 91.399,53.622 90.537,53.116 89.662,52.632 88.773,52.173 87.873,51.738 86.961,51.329 86.037,50.945 85.103,50.589 84.159,50.26 83.205,49.959 82.242,49.687 81.272,49.445 80.295,49.232 79.312,49.05 78.324,48.897 77.331,48.776 76.335,48.686 75.337,48.627 74.338,48.599 73.338,48.602 72.338,48.636 71.34,48.7 70.345,48.794 69.353,48.917 68.364,49.069 67.381,49.249 66.402,49.456 65.43,49.69 64.465,49.951 63.506,50.236 62.556,50.546 61.613,50.879 60.678,51.234 59.752,51.611 58.835,52.009 57.926,52.428 57.027,52.865 56.137,53.321 55.256,53.795 54.385,54.286 53.523,54.792 52.67,55.315 51.827,55.852 50.993,56.403 50.168,56.968 49.373,57.575 48.581,58.185 47.782,58.786 46.976,59.379 46.163,59.961 45.344,60.534 44.517,61.097 43.683,61.649 42.842,62.19 41.994,62.719 41.139,63.237 40.275,63.741 39.404,64.232 38.525,64.709 37.638,65.171 36.743,65.618 35.841,66.048 34.93,66.462 34.012,66.857 33.086,67.234 32.152,67.591 31.21,67.928 30.261,68.242 29.304,68.534 28.341,68.802 27.371,69.045 26.395,69.262 25.413,69.451 24.426,69.612 23.435,69.743 22.44,69.844 21.442,69.912 20.443,69.947 19.443,69.948 18.443,69.914 17.446,69.844 16.452,69.737 15.462,69.592 14.479,69.409 13.504,69.19 12.538,68.93 11.583,68.634 10.641,68.298 9.714,67.925 8.802,67.515 7.907,67.068 7.032,66.584 6.177,66.065 5.345,65.512 4.536,64.924 3.753,64.302 2.998,63.647 2.273,62.958 1.583,62.235 0.934,61.473 0.345,60.666 0,60" stroke="#000000" stroke-linecap="round" stroke-linejoin="round" stroke-miterlimit="10" stroke-width="1"/><text xmlns:ns1="http://oryx-editor.org" xmlns:ns2="http://oryx-editor.org" xmlns:ns3="http://oryx-editor.org" font-size="12" id="sid-3f89aa1f-5175-4cce-b941-64b69cc1e9b6text_name" letter-spacing="-0.01px" ns0:align="center middle" ns1:fittoelem="sid-3f89aa1f-5175-4cce-b941-64b69cc1e9b6text_frame" ns2:fontSize="12" ns3:textWidth="98" stroke="black" stroke-width="0pt" text-anchor="middle" transform="rotate(0)" x="50" y="25"><tspan dy="4" x="50" y="25">Richtlinie A</tspan></text><text xmlns:ns1="http://oryx-editor.org" xmlns:ns2="http://oryx-editor.org" xmlns:ns3="http://oryx-editor.org" xmlns:ns4="http://oryx-editor.org" font-size="12" id="sid-3f89aa1f-5175-4cce-b941-64b69cc1e9b6text_name_fly" letter-spacing="-0.01px" ns0:align="left top" ns1:anchors="left top" ns2:fittoelem="sid-3f89aa1f-5175-4cce-b941-64b69cc1e9b6text_frame" ns3:fontSize="12" ns4:textWidth="98" stroke="black" stroke-width="0pt" text-anchor="start" transform="rotate(0)" x="8" y="10"/><title>Wissensquelle</title></g></g><g class="children"/><g class="edge"/><g class="topchildren"/><g class="overlays stripable-element-force"/></g><g class="controls"><g class="dockers"/><g class="magnets"/></g></g><g id="svg-sid-813DF8FD-8193-4DB3-9985-1726145E78A8"><g class="stencils" transform="translate(44, 227)"><g class="me"><g xmlns:ns0="http://oryx-editor.org" ns0:minimumSize="90 72" pointer-events="fill" title="Wissensquelle"><defs><radialGradient cx="10%" cy="10%" fx="10%" fy="10%" id="sid-515da904-6735-49eb-8e89-bac94d5dd038background" r="100%"><stop offset="0" stop-color="#ffffff" stop-opacity="1"/><stop id="sid-515da904-6735-49eb-8e89-bac94d5dd038fill_el" offset="100%" stop-color="#a9c1b5" stop-opacity="1"/></radialGradient></defs><polygon fill="url(#sid-515da904-6735-49eb-8e89-bac94d5dd038background) #FEE0E2" id="sid-515da904-6735-49eb-8e89-bac94d5dd038bg_frame" ns0:resize="vertical horizontal" points="0,60 0,0 100,0 100,60 99.852,60.596 99.182,59.855 98.484,59.139 97.764,58.445 97.025,57.771 96.269,57.117 95.496,56.482 94.706,55.869 93.902,55.275 93.082,54.703 92.247,54.152 91.399,53.622 90.537,53.116 89.662,52.632 88.773,52.173 87.873,51.738 86.961,51.329 86.037,50.945 85.103,50.589 84.159,50.26 83.205,49.959 82.242,49.687 81.272,49.445 80.295,49.232 79.312,49.05 78.324,48.897 77.331,48.776 76.335,48.686 75.337,48.627 74.338,48.599 73.338,48.602 72.338,48.636 71.34,48.7 70.345,48.794 69.353,48.917 68.364,49.069 67.381,49.249 66.402,49.456 65.43,49.69 64.465,49.951 63.506,50.236 62.556,50.546 61.613,50.879 60.678,51.234 59.752,51.611 58.835,52.009 57.926,52.428 57.027,52.865 56.137,53.321 55.256,53.795 54.385,54.286 53.523,54.792 52.67,55.315 51.827,55.852 50.993,56.403 50.168,56.968 49.373,57.575 48.581,58.185 47.782,58.786 46.976,59.379 46.163,59.961 45.344,60.534 44.517,61.097 43.683,61.649 42.842,62.19 41.994,62.719 41.139,63.237 40.275,63.741 39.404,64.232 38.525,64.709 37.638,65.171 36.743,65.618 35.841,66.048 34.93,66.462 34.012,66.857 33.086,67.234 32.152,67.591 31.21,67.928 30.261,68.242 29.304,68.534 28.341,68.802 27.371,69.045 26.395,69.262 25.413,69.451 24.426,69.612 23.435,69.743 22.44,69.844 21.442,69.912 20.443,69.947 19.443,69.948 18.443,69.914 17.446,69.844 16.452,69.737 15.462,69.592 14.479,69.409 13.504,69.19 12.538,68.93 11.583,68.634 10.641,68.298 9.714,67.925 8.802,67.515 7.907,67.068 7.032,66.584 6.177,66.065 5.345,65.512 4.536,64.924 3.753,64.302 2.998,63.647 2.273,62.958 1.583,62.235 0.934,61.473 0.345,60.666 0,60" stroke="#000000" stroke-linecap="round" stroke-linejoin="round" stroke-miterlimit="10" stroke-width="1"/><text xmlns:ns1="http://oryx-editor.org" xmlns:ns2="http://oryx-editor.org" xmlns:ns3="http://oryx-editor.org" font-size="12" id="sid-515da904-6735-49eb-8e89-bac94d5dd038text_name" letter-spacing="-0.01px" ns0:align="center middle" ns1:fittoelem="sid-515da904-6735-49eb-8e89-bac94d5dd038text_frame" ns2:fontSize="12" ns3:textWidth="98" stroke="black" stroke-width="0pt" text-anchor="middle" transform="rotate(0)" x="50" y="25"><tspan dy="4" x="50" y="25">Richtlinie B</tspan></text><text xmlns:ns1="http://oryx-editor.org" xmlns:ns2="http://oryx-editor.org" xmlns:ns3="http://oryx-editor.org" xmlns:ns4="http://oryx-editor.org" font-size="12" id="sid-515da904-6735-49eb-8e89-bac94d5dd038text_name_fly" letter-spacing="-0.01px" ns0:align="left top" ns1:anchors="left top" ns2:fittoelem="sid-515da904-6735-49eb-8e89-bac94d5dd038text_frame" ns3:fontSize="12" ns4:textWidth="98" stroke="black" stroke-width="0pt" text-anchor="start" transform="rotate(0)" x="8" y="10"/><title>Wissensquelle</title></g></g><g class="children"/><g class="edge"/><g class="topchildren"/><g class="overlays stripable-element-force"/></g><g class="controls"><g class="dockers"/><g class="magnets"/></g></g><g id="svg-sid-86FA757E-21DC-438F-8323-1128F2AD9E8C"><g class="stencils" transform="translate(657, 227)"><g class="me"><g xmlns:ns0="http://oryx-editor.org" ns0:minimumSize="90 72" pointer-events="fill" title="Wissensquelle"><defs><radialGradient cx="10%" cy="10%" fx="10%" fy="10%" id="sid-e9e25cde-db8c-457d-bc41-3fc0e03579f2background" r="100%"><stop offset="0" stop-color="#ffffff" stop-opacity="1"/><stop id="sid-e9e25cde-db8c-457d-bc41-3fc0e03579f2fill_el" offset="100%" stop-color="#a9c1b5" stop-opacity="1"/></radialGradient></defs><polygon fill="url(#sid-e9e25cde-db8c-457d-bc41-3fc0e03579f2background) #FEE0E2" id="sid-e9e25cde-db8c-457d-bc41-3fc0e03579f2bg_frame" ns0:resize="vertical horizontal" points="0,60 0,0 100,0 100,60 99.852,60.596 99.182,59.855 98.484,59.139 97.764,58.445 97.025,57.771 96.269,57.117 95.496,56.482 94.706,55.869 93.902,55.275 93.082,54.703 92.247,54.152 91.399,53.622 90.537,53.116 89.662,52.632 88.773,52.173 87.873,51.738 86.961,51.329 86.037,50.945 85.103,50.589 84.159,50.26 83.205,49.959 82.242,49.687 81.272,49.445 80.295,49.232 79.312,49.05 78.324,48.897 77.331,48.776 76.335,48.686 75.337,48.627 74.338,48.599 73.338,48.602 72.338,48.636 71.34,48.7 70.345,48.794 69.353,48.917 68.364,49.069 67.381,49.249 66.402,49.456 65.43,49.69 64.465,49.951 63.506,50.236 62.556,50.546 61.613,50.879 60.678,51.234 59.752,51.611 58.835,52.009 57.926,52.428 57.027,52.865 56.137,53.321 55.256,53.795 54.385,54.286 53.523,54.792 52.67,55.315 51.827,55.852 50.993,56.403 50.168,56.968 49.373,57.575 48.581,58.185 47.782,58.786 46.976,59.379 46.163,59.961 45.344,60.534 44.517,61.097 43.683,61.649 42.842,62.19 41.994,62.719 41.139,63.237 40.275,63.741 39.404,64.232 38.525,64.709 37.638,65.171 36.743,65.618 35.841,66.048 34.93,66.462 34.012,66.857 33.086,67.234 32.152,67.591 31.21,67.928 30.261,68.242 29.304,68.534 28.341,68.802 27.371,69.045 26.395,69.262 25.413,69.451 24.426,69.612 23.435,69.743 22.44,69.844 21.442,69.912 20.443,69.947 19.443,69.948 18.443,69.914 17.446,69.844 16.452,69.737 15.462,69.592 14.479,69.409 13.504,69.19 12.538,68.93 11.583,68.634 10.641,68.298 9.714,67.925 8.802,67.515 7.907,67.068 7.032,66.584 6.177,66.065 5.345,65.512 4.536,64.924 3.753,64.302 2.998,63.647 2.273,62.958 1.583,62.235 0.934,61.473 0.345,60.666 0,60" stroke="#000000" stroke-linecap="round" stroke-linejoin="round" stroke-miterlimit="10" stroke-width="1"/><text xmlns:ns1="http://oryx-editor.org" xmlns:ns2="http://oryx-editor.org" xmlns:ns3="http://oryx-editor.org" font-size="12" id="sid-e9e25cde-db8c-457d-bc41-3fc0e03579f2text_name" letter-spacing="-0.01px" ns0:align="center middle" ns1:fittoelem="sid-e9e25cde-db8c-457d-bc41-3fc0e03579f2text_frame" ns2:fontSize="12" ns3:textWidth="98" stroke="black" stroke-width="0pt" text-anchor="middle" transform="rotate(0)" x="50" y="25"><tspan dy="4" x="50" y="25">Richtlinie C</tspan></text><text xmlns:ns1="http://oryx-editor.org" xmlns:ns2="http://oryx-editor.org" xmlns:ns3="http://oryx-editor.org" xmlns:ns4="http://oryx-editor.org" font-size="12" id="sid-e9e25cde-db8c-457d-bc41-3fc0e03579f2text_name_fly" letter-spacing="-0.01px" ns0:align="left top" ns1:anchors="left top" ns2:fittoelem="sid-e9e25cde-db8c-457d-bc41-3fc0e03579f2text_frame" ns3:fontSize="12" ns4:textWidth="98" stroke="black" stroke-width="0pt" text-anchor="start" transform="rotate(0)" x="8" y="10"/><title>Wissensquelle</title></g></g><g class="children"/><g class="edge"/><g class="topchildren"/><g class="overlays stripable-element-force"/></g><g class="controls"><g class="dockers"/><g class="magnets"/></g></g></g><g class="edge"><g id="svg-sid-A18586CE-C2A5-43CC-8EB5-62554178D602"><g class="stencils"><g class="me"><g pointer-events="painted"><path d="M238.453 306.5 L190.78 352.971 " fill="none" id="sid-5b85e7ca-b8e5-47a0-bc78-27c68b21882aedge_shadow" marker-start="url(#sid-5b85e7ca-b8e5-47a0-bc78-27c68b21882astart_shadow)" stroke="white" stroke-linecap="butt" stroke-linejoin="round" stroke-opacity="0.7" stroke-width="5"/><path d="M238.453 306.5 L190.78 352.971 " fill="none" id="sid-5b85e7ca-b8e5-47a0-bc78-27c68b21882aedge" marker-start="url(#sid-5b85e7ca-b8e5-47a0-bc78-27c68b21882astart)" stroke="#000000" stroke-linecap="round" stroke-linejoin="round" stroke-width="2"/></g><text xmlns:ns0="http://oryx-editor.org" xmlns:ns1="http://oryx-editor.org" xmlns:ns2="http://oryx-editor.org" xmlns:ns4="http://oryx-editor.org" font-size="14" id="sid-5b85e7ca-b8e5-47a0-bc78-27c68b21882atext" letter-spacing="-0.01px" ns0:align="center bottom" ns1:edgePosition="midtop" ns2:fontSize="14" ns4:textWidth="-1" oryx:rotate="-44.269" stroke-width="0pt" text-anchor="middle" transform="rotate(-44.269, 214.616, 329.736)" x="214.616" y="321.736"/></g><g class="children" transform="translate(190.78, 306.5)"/><g class="edge"/><g class="topchildren"/><g class="overlays stripable-element-force"/></g><g class="controls"><g class="dockers"/><g class="magnets"/></g></g><g id="svg-sid-07F2698D-56D7-44C5-B679-DA58C5E55EA5"><g class="stencils"><g class="me"><g pointer-events="painted"><path d="M289.427 306.5 L299.901 351.5 " fill="none" id="sid-9bb653cd-d4c7-4fe6-8cd7-c2371268fb1bedge_shadow" marker-start="url(#sid-9bb653cd-d4c7-4fe6-8cd7-c2371268fb1bstart_shadow)" stroke="white" stroke-linecap="butt" stroke-linejoin="round" stroke-opacity="0.7" stroke-width="5"/><path d="M289.427 306.5 L299.901 351.5 " fill="none" id="sid-9bb653cd-d4c7-4fe6-8cd7-c2371268fb1bedge" marker-start="url(#sid-9bb653cd-d4c7-4fe6-8cd7-c2371268fb1bstart)" stroke="#000000" stroke-linecap="round" stroke-linejoin="round" stroke-width="2"/></g><text xmlns:ns0="http://oryx-editor.org" xmlns:ns1="http://oryx-editor.org" xmlns:ns2="http://oryx-editor.org" xmlns:ns4="http://oryx-editor.org" font-size="14" id="sid-9bb653cd-d4c7-4fe6-8cd7-c2371268fb1btext" letter-spacing="-0.01px" ns0:align="center bottom" ns1:edgePosition="midtop" ns2:fontSize="14" ns4:textWidth="-1" oryx:rotate="76.897" stroke-width="0pt" text-anchor="middle" transform="rotate(76.897, 294.664, 329)" x="294.664" y="321"/></g><g class="children" transform="translate(289.427, 306.5)"/><g class="edge"/><g class="topchildren"/><g class="overlays stripable-element-force"/></g><g class="controls"><g class="dockers"/><g class="magnets"/></g></g><g id="svg-sid-490729E2-7BFF-4985-AE65-43C6F2146118"><g class="stencils"><g class="me"><g pointer-events="painted"><path d="M438.571 180.5 L481.429 225.5 " fill="none" id="sid-92098b3f-46fd-4188-905c-bd7a3304e7c3edge_shadow" marker-start="url(#sid-92098b3f-46fd-4188-905c-bd7a3304e7c3start_shadow)" stroke="white" stroke-linecap="butt" stroke-linejoin="round" stroke-opacity="0.7" stroke-width="5"/><path d="M438.571 180.5 L481.429 225.5 " fill="none" id="sid-92098b3f-46fd-4188-905c-bd7a3304e7c3edge" marker-start="url(#sid-92098b3f-46fd-4188-905c-bd7a3304e7c3start)" stroke="#000000" stroke-linecap="round" stroke-linejoin="round" stroke-width="2"/></g><text xmlns:ns0="http://oryx-editor.org" xmlns:ns1="http://oryx-editor.org" xmlns:ns2="http://oryx-editor.org" xmlns:ns4="http://oryx-editor.org" font-size="14" id="sid-92098b3f-46fd-4188-905c-bd7a3304e7c3text" letter-spacing="-0.01px" ns0:align="center bottom" ns1:edgePosition="midtop" ns2:fontSize="14" ns4:textWidth="-1" oryx:rotate="46.397" stroke-width="0pt" text-anchor="middle" transform="rotate(46.397, 460, 203)" x="460" y="195"/></g><g class="children" transform="translate(438.571, 180.5)"/><g class="edge"/><g class="topchildren"/><g class="overlays stripable-element-force"/></g><g class="controls"><g class="dockers"/><g class="magnets"/></g></g><g id="svg-sid-60E45C62-98B4-435E-A4F8-D8D48DD82654"><g class="stencils"><g class="me"><g pointer-events="painted"><path d="M361.429 180.5 L318.571 225.5 " fill="none" id="sid-11d41a78-e0b1-407e-8d04-6ea676d1d4dcedge_shadow" marker-start="url(#sid-11d41a78-e0b1-407e-8d04-6ea676d1d4dcstart_shadow)" stroke="white" stroke-linecap="butt" stroke-linejoin="round" stroke-opacity="0.7" stroke-width="5"/><path d="M361.429 180.5 L318.571 225.5 " fill="none" id="sid-11d41a78-e0b1-407e-8d04-6ea676d1d4dcedge" marker-start="url(#sid-11d41a78-e0b1-407e-8d04-6ea676d1d4dcstart)" stroke="#000000" stroke-linecap="round" stroke-linejoin="round" stroke-width="2"/></g><text xmlns:ns0="http://oryx-editor.org" xmlns:ns1="http://oryx-editor.org" xmlns:ns2="http://oryx-editor.org" xmlns:ns4="http://oryx-editor.org" font-size="14" id="sid-11d41a78-e0b1-407e-8d04-6ea676d1d4dctext" letter-spacing="-0.01px" ns0:align="center bottom" ns1:edgePosition="midtop" ns2:fontSize="14" ns4:textWidth="-1" oryx:rotate="-46.397" stroke-width="0pt" text-anchor="middle" transform="rotate(-46.397, 340, 203)" x="340" y="195"/></g><g class="children" transform="translate(318.571, 180.5)"/><g class="edge"/><g class="topchildren"/><g class="overlays stripable-element-force"/></g><g class="controls"><g class="dockers"/><g class="magnets"/></g></g><g id="svg-sid-934041B8-3003-4DA8-94F1-DC2845D8C4C4"><g class="stencils"><g class="me"><g pointer-events="painted"><path d="M492.069 306.5 L461.031 351.505 " fill="none" id="sid-8f8694ec-8fb0-4d7d-9da9-1eddb695faa2edge_shadow" marker-start="url(#sid-8f8694ec-8fb0-4d7d-9da9-1eddb695faa2start_shadow)" stroke="white" stroke-linecap="butt" stroke-linejoin="round" stroke-opacity="0.7" stroke-width="5"/><path d="M492.069 306.5 L461.031 351.505 " fill="none" id="sid-8f8694ec-8fb0-4d7d-9da9-1eddb695faa2edge" marker-start="url(#sid-8f8694ec-8fb0-4d7d-9da9-1eddb695faa2start)" stroke="#000000" stroke-linecap="round" stroke-linejoin="round" stroke-width="2"/></g><text xmlns:ns0="http://oryx-editor.org" xmlns:ns1="http://oryx-editor.org" xmlns:ns2="http://oryx-editor.org" xmlns:ns4="http://oryx-editor.org" font-size="14" id="sid-8f8694ec-8fb0-4d7d-9da9-1eddb695faa2text" letter-spacing="-0.01px" ns0:align="center bottom" ns1:edgePosition="midtop" ns2:fontSize="14" ns4:textWidth="-1" oryx:rotate="-55.408" stroke-width="0pt" text-anchor="middle" transform="rotate(-55.408, 476.55, 329.002)" x="476.55" y="321.002"/></g><g class="children" transform="translate(461.031, 306.5)"/><g class="edge"/><g class="topchildren"/><g class="overlays stripable-element-force"/></g><g class="controls"><g class="dockers"/><g class="magnets"/></g></g><g id="svg-sid-E7EA330E-84CC-4BAF-A81D-7ECA34B0F259"><g class="stencils"><g class="me"><g pointer-events="painted"><path d="M543.043 306.5 L568.647 351.5 " fill="none" id="sid-b304d907-1389-495b-932f-b0765658e29aedge_shadow" marker-start="url(#sid-b304d907-1389-495b-932f-b0765658e29astart_shadow)" stroke="white" stroke-linecap="butt" stroke-linejoin="round" stroke-opacity="0.7" stroke-width="5"/><path d="M543.043 306.5 L568.647 351.5 " fill="none" id="sid-b304d907-1389-495b-932f-b0765658e29aedge" marker-start="url(#sid-b304d907-1389-495b-932f-b0765658e29astart)" stroke="#000000" stroke-linecap="round" stroke-linejoin="round" stroke-width="2"/></g><text xmlns:ns0="http://oryx-editor.org" xmlns:ns1="http://oryx-editor.org" xmlns:ns2="http://oryx-editor.org" xmlns:ns4="http://oryx-editor.org" font-size="14" id="sid-b304d907-1389-495b-932f-b0765658e29atext" letter-spacing="-0.01px" ns0:align="center bottom" ns1:edgePosition="midtop" ns2:fontSize="14" ns4:textWidth="-1" oryx:rotate="60.362" stroke-width="0pt" text-anchor="middle" transform="rotate(60.362, 555.845, 329)" x="555.845" y="321"/></g><g class="children" transform="translate(543.043, 306.5)"/><g class="edge"/><g class="topchildren"/><g class="overlays stripable-element-force"/></g><g class="controls"><g class="dockers"/><g class="magnets"/></g></g><g id="svg-sid-7DAFF42D-9596-4FBE-A0F6-FBF7423CB0C4"><g class="stencils"><g class="me"><g id="sid-b2c3d262-9fce-4c53-bf1c-618c02da68b1edge" pointer-events="painted"><path d="M450.5 140 L616 140 " fill="none" id="sid-b2c3d262-9fce-4c53-bf1c-618c02da68b1bg_frame" marker-start="url(#sid-b2c3d262-9fce-4c53-bf1c-618c02da68b1start)" stroke="#000000" stroke-dasharray="3, 4" stroke-width="2"/></g><text xmlns:ns0="http://oryx-editor.org" xmlns:ns1="http://oryx-editor.org" xmlns:ns2="http://oryx-editor.org" xmlns:ns4="http://oryx-editor.org" font-size="12" id="sid-b2c3d262-9fce-4c53-bf1c-618c02da68b1name" letter-spacing="-0.01px" ns0:align="center bottom" ns1:edgePosition="midtop" ns2:fontSize="12" ns4:textWidth="-1" oryx:rotate="360" stroke-width="0pt" text-anchor="middle" transform="rotate(360, 533.25, 140)" x="533.25" y="132"/></g><g class="children" transform="translate(450.5, 140)"/><g class="edge"/><g class="topchildren"/><g class="overlays stripable-element-force"/></g><g class="controls"><g class="dockers"/><g class="magnets"/></g></g><g id="svg-sid-899771B2-1D4F-4574-B0C2-6410DD0601FB"><g class="stencils"><g class="me"><g id="sid-6ee5fd14-f99e-423c-97e3-64b1bc4e2c65edge" pointer-events="painted"><path d="M570.5 266.27 L657 266.733 " fill="none" id="sid-6ee5fd14-f99e-423c-97e3-64b1bc4e2c65bg_frame" marker-start="url(#sid-6ee5fd14-f99e-423c-97e3-64b1bc4e2c65start)" stroke="#000000" stroke-dasharray="3, 4" stroke-width="2"/></g><text xmlns:ns0="http://oryx-editor.org" xmlns:ns1="http://oryx-editor.org" xmlns:ns2="http://oryx-editor.org" xmlns:ns4="http://oryx-editor.org" font-size="12" id="sid-6ee5fd14-f99e-423c-97e3-64b1bc4e2c65name" letter-spacing="-0.01px" ns0:align="center bottom" ns1:edgePosition="midtop" ns2:fontSize="12" ns4:textWidth="-1" oryx:rotate="0.306" stroke-width="0pt" text-anchor="middle" transform="rotate(0.306, 613.75, 266.501)" x="613.75" y="258.501"/></g><g class="children" transform="translate(570.5, 266.27)"/><g class="edge"/><g class="topchildren"/><g class="overlays stripable-element-force"/></g><g class="controls"><g class="dockers"/><g class="magnets"/></g></g><g id="svg-sid-22153416-9728-4D58-B880-2577C6C3EA6C"><g class="stencils"><g class="me"><g id="sid-68376137-8d90-4e44-94c2-498e6c289163edge" pointer-events="painted"><path d="M229.5 266.272 L144 266.731 " fill="none" id="sid-68376137-8d90-4e44-94c2-498e6c289163bg_frame" marker-start="url(#sid-68376137-8d90-4e44-94c2-498e6c289163start)" stroke="#000000" stroke-dasharray="3, 4" stroke-width="2"/></g><text xmlns:ns0="http://oryx-editor.org" xmlns:ns1="http://oryx-editor.org" xmlns:ns2="http://oryx-editor.org" xmlns:ns4="http://oryx-editor.org" font-size="12" id="sid-68376137-8d90-4e44-94c2-498e6c289163name" letter-spacing="-0.01px" ns0:align="center bottom" ns1:edgePosition="midtop" ns2:fontSize="12" ns4:textWidth="-1" oryx:rotate="-0.308" stroke-width="0pt" text-anchor="middle" transform="rotate(-0.308, 186.75, 266.501)" x="186.75" y="258.501"/></g><g class="children" transform="translate(144, 266.272)"/><g class="edge"/><g class="topchildren"/><g class="overlays stripable-element-force"/></g><g class="controls"><g class="dockers"/><g class="magnets"/></g></g></g><g class="topchildren"/><g class="overlays stripable-element-force"/></g></g></svg>